<svg xmlns="http://www.w3.org/2000/svg" width="17.244" height="12.317" viewBox="0 0 17.244 12.317">
    <defs>
        <style>
            .cls-1{fill:#fff}
        </style>
    </defs>
    <g id="close-envelope" transform="translate(0 -2)">
        <g id="Group_125" data-name="Group 125" transform="translate(0 2)">
            <path id="Path_382" d="M8.549 9.351L6.415 7.484l-6.1 5.229a1.249 1.249 0 0 0 .851.334H15.93a1.239 1.239 0 0 0 .847-.334l-6.1-5.229z" class="cls-1" data-name="Path 382" transform="translate(.073 -.729)"/>
            <path id="Path_383" d="M16.781 2.334A1.241 1.241 0 0 0 15.93 2H1.167a1.235 1.235 0 0 0-.849.336l8.23 7.054z" class="cls-1" data-name="Path 383" transform="translate(.074 -2)"/>
            <path id="Path_384" d="M0 2.878v10.233l5.953-5.059z" class="cls-1" data-name="Path 384" transform="translate(0 -1.797)"/>
            <path id="Path_385" d="M9.167 8.053l5.953 5.059V2.875z" class="cls-1" data-name="Path 385" transform="translate(2.124 -1.797)"/>
        </g>
    </g>
</svg>
